<svg xmlns="http://www.w3.org/2000/svg" version="1.1" xmlns:xlink="http://www.w3.org/1999/xlink" xmlns:svgjs="http://svgjs.dev/svgjs" width="1000" height="904" viewBox="0 0 1000 904"><g transform="matrix(1,0,0,1,-0.8259677105939431,0.36599190283396865)"><svg viewBox="0 0 273 247" data-background-color="#ffffff" preserveAspectRatio="xMidYMid meet" height="904" width="1000" xmlns="http://www.w3.org/2000/svg" xmlns:xlink="http://www.w3.org/1999/xlink"><g id="tight-bounds" transform="matrix(1,0,0,1,0.22548925379905427,-0.09999999999999432)"><svg viewBox="0 0 272.54901408091524 247.2" height="247.2" width="272.54901408091524"><g><svg viewBox="0 0 395.52 358.7338018070135" height="247.2" width="272.54901408091524"><g transform="matrix(1,0,0,1,0,256.2708524583124)"><svg viewBox="0 0 395.52 102.46294934870107" height="102.46294934870107" width="395.52"><g><svg viewBox="0 0 395.52 102.46294934870107" height="102.46294934870107" width="395.52"><g><svg viewBox="0 0 395.52 55.263618831537144" height="55.263618831537144" width="395.52"><g transform="matrix(1,0,0,1,0,0)"><svg width="395.52" viewBox="1.6800000667572021 -36.54999923706055 264.42999267578125 36.95000076293945" height="55.263618831537144" data-palette-color="#0718c4"><path d="M38.33-18.07L38.33-18.07Q38.33-14.1 37-10.71 35.68-7.33 33.27-4.85 30.88-2.38 27.5-0.99 24.13 0.4 20.03 0.4L20.03 0.4Q15.93 0.4 12.54-0.99 9.15-2.38 6.74-4.85 4.33-7.33 3-10.71 1.68-14.1 1.68-18.07L1.68-18.07Q1.68-22.05 3-25.44 4.33-28.83 6.74-31.3 9.15-33.77 12.54-35.16 15.93-36.55 20.03-36.55L20.03-36.55Q24.13-36.55 27.5-35.15 30.88-33.75 33.27-31.29 35.68-28.83 37-25.44 38.33-22.05 38.33-18.07ZM31.43-18.07L31.43-18.07Q31.43-21.05 30.64-23.41 29.85-25.78 28.38-27.43 26.9-29.08 24.79-29.95 22.68-30.83 20.03-30.83L20.03-30.83Q17.38-30.83 15.25-29.95 13.13-29.08 11.64-27.43 10.15-25.78 9.35-23.41 8.55-21.05 8.55-18.07L8.55-18.07Q8.55-15.1 9.35-12.74 10.15-10.38 11.64-8.74 13.13-7.1 15.25-6.23 17.38-5.35 20.03-5.35L20.03-5.35Q22.68-5.35 24.79-6.23 26.9-7.1 28.38-8.74 29.85-10.38 30.64-12.74 31.43-15.1 31.43-18.07ZM61.77-15L61.77-15Q62.2-14.2 62.56-13.34 62.92-12.48 63.27-11.6L63.27-11.6Q63.62-12.5 64-13.38 64.37-14.25 64.8-15.05L64.8-15.05 75.5-35.08Q75.7-35.45 75.91-35.68 76.12-35.9 76.39-36 76.65-36.1 76.97-36.13 77.3-36.15 77.75-36.15L77.75-36.15 82.82-36.15 82.82 0 76.9 0 76.9-23.35Q76.9-24 76.94-24.78 76.97-25.55 77.05-26.35L77.05-26.35 66.12-5.85Q65.75-5.15 65.15-4.76 64.55-4.38 63.75-4.38L63.75-4.38 62.82-4.38Q62.02-4.38 61.42-4.76 60.82-5.15 60.45-5.85L60.45-5.85 49.37-26.43Q49.47-25.6 49.51-24.81 49.55-24.03 49.55-23.35L49.55-23.35 49.55 0 43.62 0 43.62-36.15 48.7-36.15Q49.15-36.15 49.47-36.13 49.8-36.1 50.06-36 50.32-35.9 50.55-35.68 50.77-35.45 50.97-35.08L50.97-35.08 61.77-15ZM106.72-36.18L106.72-21 108.29-21Q109.24-21 109.87-21.26 110.49-21.53 110.94-22.1L110.94-22.1 120.92-34.73Q121.54-35.52 122.23-35.84 122.92-36.15 123.97-36.15L123.97-36.15 129.77-36.15 117.59-21.13Q117.02-20.43 116.49-19.95 115.97-19.48 115.37-19.18L115.37-19.18Q116.19-18.88 116.86-18.32 117.52-17.78 118.14-16.93L118.14-16.93 130.69 0 124.74 0Q123.54 0 122.96-0.34 122.37-0.68 121.97-1.33L121.97-1.33 111.74-14.68Q111.24-15.33 110.62-15.61 109.99-15.9 108.84-15.9L108.84-15.9 106.72-15.9 106.72 0 99.99 0 99.99-36.18 106.72-36.18ZM134.67-36.15L157.47-36.15 157.47-30.8 141.44-30.8 141.44-20.78 154.07-20.78 154.07-15.6 141.44-15.6 141.44-5.38 157.47-5.38 157.47 0 134.67 0 134.67-36.15ZM170.01-36.15L170.01-5.55 184.49-5.55 184.49 0 163.29 0 163.29-36.15 170.01-36.15ZM192.84 0L181.61-36.15 187.26-36.15Q188.13-36.15 188.72-35.74 189.31-35.33 189.51-34.63L189.51-34.63 195.66-13Q195.88-12.2 196.07-11.26 196.26-10.33 196.44-9.28L196.44-9.28Q196.63-10.33 196.87-11.26 197.11-12.2 197.38-13L197.38-13 204.49-34.63Q204.69-35.2 205.27-35.68 205.86-36.15 206.71-36.15L206.71-36.15 208.69-36.15Q209.56-36.15 210.13-35.74 210.71-35.33 210.94-34.63L210.94-34.63 217.99-13Q218.53-11.4 218.94-9.45L218.94-9.45Q219.11-10.43 219.3-11.33 219.49-12.23 219.69-13L219.69-13 225.84-34.63Q226.01-35.25 226.61-35.7 227.21-36.15 228.06-36.15L228.06-36.15 233.34-36.15 222.11 0 216.03 0 208.13-24.7Q207.99-25.18 207.82-25.73 207.66-26.28 207.51-26.9L207.51-26.9Q207.36-26.28 207.2-25.73 207.03-25.18 206.88-24.7L206.88-24.7 198.91 0 192.84 0ZM251.91-36.15L266.11 0 260.91 0Q260.03 0 259.47-0.44 258.91-0.88 258.66-1.53L258.66-1.53 255.96-8.9 240.98-8.9 238.28-1.53Q238.08-0.95 237.5-0.48 236.91 0 236.06 0L236.06 0 230.83 0 245.03-36.15 251.91-36.15ZM247.11-25.63L242.71-13.65 254.23-13.65 249.83-25.68Q249.53-26.48 249.17-27.56 248.81-28.65 248.46-29.93L248.46-29.93Q248.11-28.65 247.77-27.55 247.43-26.45 247.11-25.63L247.11-25.63Z" opacity="1" transform="matrix(1,0,0,1,0,0)" fill="#0718c4" class="undefined-text-0" data-fill-palette-color="primary" id="text-0"></path></svg></g></svg></g><g transform="matrix(1,0,0,1,0,68.3100329108111)"><svg viewBox="0 0 395.52 34.15291643788996" height="34.15291643788996" width="395.52"><g transform="matrix(1,0,0,1,0,0)"><svg width="395.52" viewBox="2.9800000190734863 -37.54999923706055 567.4500122070312 49" height="34.15291643788996" data-palette-color="#1b3403"><path d="M32.23-14.65L32.23 0 25.88 0 25.88-14.65Q25.88-15.89 25.45-16.88 25.02-17.87 24.29-18.58 23.56-19.29 22.57-19.67 21.58-20.04 20.43-20.04L20.43-20.04 9.33-20.04 9.33 0 2.98 0 2.98-23.24Q2.98-23.9 3.22-24.48 3.47-25.05 3.91-25.48 4.35-25.9 4.93-26.15 5.52-26.39 6.18-26.39L6.18-26.39 20.48-26.39Q21.68-26.39 23.01-26.12 24.34-25.85 25.65-25.26 26.95-24.66 28.14-23.74 29.32-22.83 30.24-21.52 31.15-20.21 31.69-18.51 32.23-16.8 32.23-14.65L32.23-14.65ZM67.8-17.65L67.8-17.65Q67.8-16.33 67.33-14.81 66.87-13.28 65.83-11.98 64.79-10.67 63.12-9.79 61.45-8.91 59.06-8.91L59.06-8.91 47.61-8.91 47.61-14.94 59.06-14.94Q60.35-14.94 61.06-15.73 61.77-16.53 61.77-17.7L61.77-17.7Q61.77-18.95 60.97-19.65 60.18-20.36 59.06-20.36L59.06-20.36 47.61-20.36Q46.31-20.36 45.6-19.57 44.9-18.77 44.9-17.6L44.9-17.6 44.9-8.74Q44.9-7.47 45.69-6.76 46.48-6.05 47.65-6.05L47.65-6.05 59.06-6.05 59.06 0 47.61 0Q46.29 0 44.76-0.46 43.24-0.93 41.93-1.97 40.62-3 39.74-4.68 38.87-6.35 38.87-8.74L38.87-8.74 38.87-17.65Q38.87-18.97 39.33-20.5 39.79-22.02 40.83-23.33 41.87-24.63 43.54-25.51 45.21-26.39 47.61-26.39L47.61-26.39 59.06-26.39Q60.37-26.39 61.9-25.93 63.43-25.46 64.73-24.43 66.04-23.39 66.92-21.72 67.8-20.04 67.8-17.65ZM98.43-26.39L105.17-26.39Q104.1-23.05 102.66-19.8 101.22-16.55 99.35-13.61 97.48-10.67 95.17-8.17 92.87-5.66 90.07-3.85 87.28-2.03 83.99-0.99 80.71 0.05 76.88 0.05L76.88 0.05Q76.22 0.05 75.63-0.2 75.05-0.44 74.61-0.87 74.17-1.29 73.92-1.87 73.68-2.44 73.68-3.1L73.68-3.1 73.68-26.39 80.03-26.39 80.03-6.54Q82.35-6.54 84.48-7.54 86.62-8.54 88.52-10.19 90.43-11.84 92.05-13.94 93.67-16.04 94.94-18.25 96.21-20.46 97.1-22.58 97.99-24.71 98.43-26.39L98.43-26.39ZM137.45-17.65L137.45-17.65Q137.45-16.33 136.98-14.81 136.52-13.28 135.48-11.98 134.44-10.67 132.77-9.79 131.1-8.91 128.71-8.91L128.71-8.91 117.26-8.91 117.26-14.94 128.71-14.94Q130-14.94 130.71-15.73 131.42-16.53 131.42-17.7L131.42-17.7Q131.42-18.95 130.62-19.65 129.83-20.36 128.71-20.36L128.71-20.36 117.26-20.36Q115.96-20.36 115.25-19.57 114.55-18.77 114.55-17.6L114.55-17.6 114.55-8.74Q114.55-7.47 115.34-6.76 116.13-6.05 117.3-6.05L117.3-6.05 128.71-6.05 128.71 0 117.26 0Q115.94 0 114.41-0.46 112.89-0.93 111.58-1.97 110.27-3 109.39-4.68 108.52-6.35 108.52-8.74L108.52-8.74 108.52-17.65Q108.52-18.97 108.98-20.5 109.44-22.02 110.48-23.33 111.52-24.63 113.19-25.51 114.86-26.39 117.26-26.39L117.26-26.39 128.71-26.39Q130.02-26.39 131.55-25.93 133.08-25.46 134.38-24.43 135.69-23.39 136.57-21.72 137.45-20.04 137.45-17.65ZM166.42-26.39L166.42-20.04 152.14-20.04Q150.85-20.04 150.19-19.4 149.53-18.75 149.53-17.5L149.53-17.5 149.53 0 143.18 0 143.18-17.5Q143.18-19.14 143.6-20.43 144.01-21.73 144.71-22.72 145.4-23.71 146.31-24.4 147.21-25.1 148.2-25.54 149.19-25.98 150.2-26.18 151.21-26.39 152.09-26.39L152.09-26.39 166.42-26.39ZM215.2-8.91L215.2-8.91Q215.2-7.28 214.78-5.97 214.37-4.66 213.69-3.67 213-2.69 212.1-1.99 211.2-1.29 210.21-0.85 209.22-0.42 208.21-0.21 207.19 0 206.29 0L206.29 0 189.1 0 189.1-6.35 206.24-6.35Q207.53-6.35 208.19-7.01 208.85-7.67 208.85-8.91L208.85-8.91Q208.73-11.45 206.29-11.45L206.29-11.45 196.45-11.45Q194.35-11.45 192.89-12.18 191.42-12.92 190.51-14.01 189.59-15.11 189.19-16.38 188.78-17.65 188.78-18.75L188.78-18.75Q188.78-20.87 189.54-22.33 190.3-23.78 191.45-24.68 192.59-25.59 193.94-25.99 195.28-26.39 196.45-26.39L196.45-26.39 212.05-26.39 212.05-20.04 196.5-20.04Q196.01-20.04 195.73-19.93 195.45-19.82 195.31-19.64 195.18-19.46 195.16-19.25 195.13-19.04 195.13-18.85L195.13-18.85Q195.16-18.46 195.28-18.24 195.4-18.02 195.58-17.92 195.77-17.82 196-17.81 196.23-17.8 196.45-17.8L196.45-17.8 206.29-17.8Q208.73-17.8 210.44-16.92 212.15-16.04 213.2-14.71 214.25-13.38 214.72-11.82 215.2-10.25 215.2-8.91ZM244.81-26.39L244.81-20.04 233.73-20.04 233.73 0 227.31 0 227.31-20.04 219.06-20.04 219.06-26.39 227.31-26.39 227.31-35.01 233.73-35.01 233.73-26.39 244.81-26.39ZM279.21-17.5L279.21-8.91Q279.21-7.28 278.8-5.97 278.38-4.66 277.7-3.67 277.01-2.69 276.11-1.99 275.21-1.29 274.22-0.85 273.23-0.42 272.22-0.21 271.2 0 270.3 0L270.3 0 258.85 0Q257.53 0 255.97-0.46 254.41-0.93 253.08-1.99 251.74-3.05 250.85-4.75 249.96-6.45 249.96-8.91L249.96-8.91 249.96-17.5Q249.96-19.95 250.85-21.64 251.74-23.34 253.08-24.4 254.41-25.46 255.97-25.93 257.53-26.39 258.85-26.39L258.85-26.39 270.3-26.39Q272.74-26.39 274.45-25.51 276.16-24.63 277.21-23.3 278.26-21.97 278.73-20.41 279.21-18.85 279.21-17.5L279.21-17.5ZM272.86-8.91L272.86-17.46Q272.86-18.77 272.2-19.41 271.54-20.04 270.3-20.04L270.3-20.04 258.9-20.04Q257.63-20.04 256.97-19.4 256.31-18.75 256.31-17.5L256.31-17.5 256.31-8.91Q256.31-7.67 256.97-7.01 257.63-6.35 258.9-6.35L258.9-6.35 270.3-6.35Q271.59-6.35 272.23-7.01 272.86-7.67 272.86-8.91L272.86-8.91ZM315.32-17.5L315.32-8.91Q315.32-7.28 314.9-5.97 314.49-4.66 313.8-3.67 313.12-2.69 312.22-1.99 311.31-1.29 310.32-0.85 309.34-0.42 308.33-0.21 307.33 0 306.43 0L306.43 0 294.98 0 294.98-6.35 306.43-6.35Q307.7-6.35 308.33-7.01 308.97-7.67 308.97-8.91L308.97-8.91 308.97-17.46Q308.97-18.77 308.32-19.41 307.68-20.04 306.43-20.04L306.43-20.04 295.03-20.04Q293.74-20.04 293.08-19.4 292.42-18.75 292.42-17.5L292.42-17.5 292.42 8.25 286.07 8.25 286.07-17.5Q286.07-19.14 286.48-20.43 286.9-21.73 287.59-22.72 288.29-23.71 289.19-24.4 290.1-25.1 291.09-25.54 292.07-25.98 293.09-26.18 294.1-26.39 294.98-26.39L294.98-26.39 306.43-26.39Q308.07-26.39 309.36-25.98 310.65-25.56 311.64-24.88 312.63-24.19 313.33-23.29 314.02-22.39 314.46-21.4 314.9-20.41 315.11-19.41 315.32-18.41 315.32-17.5L315.32-17.5ZM351.81-6.35L351.81 0 348.98 0Q347.61 0 346.06-0.46 344.51-0.93 343.17-1.99 341.83-3.05 340.95-4.75 340.07-6.45 340.07-8.91L340.07-8.91 340.07-37.55 346.42-37.55 346.42-8.91Q346.42-7.74 347.15-7.04 347.88-6.35 348.98-6.35L348.98-6.35 351.81-6.35ZM385.89-17.65L385.89-17.65Q385.89-16.33 385.43-14.81 384.97-13.28 383.93-11.98 382.89-10.67 381.22-9.79 379.55-8.91 377.15-8.91L377.15-8.91 365.7-8.91 365.7-14.94 377.15-14.94Q378.45-14.94 379.15-15.73 379.86-16.53 379.86-17.7L379.86-17.7Q379.86-18.95 379.07-19.65 378.28-20.36 377.15-20.36L377.15-20.36 365.7-20.36Q364.41-20.36 363.7-19.57 362.99-18.77 362.99-17.6L362.99-17.6 362.99-8.74Q362.99-7.47 363.79-6.76 364.58-6.05 365.75-6.05L365.75-6.05 377.15-6.05 377.15 0 365.7 0Q364.38 0 362.86-0.46 361.33-0.93 360.03-1.97 358.72-3 357.84-4.68 356.96-6.35 356.96-8.74L356.96-8.74 356.96-17.65Q356.96-18.97 357.43-20.5 357.89-22.02 358.93-23.33 359.97-24.63 361.64-25.51 363.31-26.39 365.7-26.39L365.7-26.39 377.15-26.39Q378.47-26.39 380-25.93 381.52-25.46 382.83-24.43 384.14-23.39 385.01-21.72 385.89-20.04 385.89-17.65ZM418.83-17.65L418.83-8.74Q418.83-7.42 418.36-5.9 417.9-4.37 416.86-3.06 415.82-1.76 414.15-0.88 412.48 0 410.09 0L410.09 0 398.64 0Q397.32 0 395.79-0.46 394.27-0.93 392.96-1.97 391.65-3 390.77-4.68 389.9-6.35 389.9-8.74L389.9-8.74Q389.9-10.06 390.36-11.6 390.82-13.13 391.86-14.44 392.9-15.75 394.57-16.63 396.24-17.5 398.64-17.5L398.64-17.5 410.09-17.5 410.09-11.45 398.64-11.45Q397.34-11.45 396.63-10.66 395.93-9.86 395.93-8.69L395.93-8.69Q395.93-7.45 396.74-6.75 397.56-6.05 398.68-6.05L398.68-6.05 410.09-6.05Q411.38-6.05 412.09-6.84 412.8-7.62 412.8-8.79L412.8-8.79 412.8-17.65Q412.8-18.9 412.03-19.63 411.26-20.36 410.09-20.36L410.09-20.36 396.15-20.36 396.15-26.39 410.09-26.39Q411.4-26.39 412.93-25.93 414.46-25.46 415.76-24.43 417.07-23.39 417.95-21.72 418.83-20.04 418.83-17.65L418.83-17.65ZM448.95-26.39L448.95-20.04 434.67-20.04Q433.38-20.04 432.72-19.4 432.06-18.75 432.06-17.5L432.06-17.5 432.06 0 425.71 0 425.71-17.5Q425.71-19.14 426.12-20.43 426.54-21.73 427.24-22.72 427.93-23.71 428.83-24.4 429.74-25.1 430.73-25.54 431.72-25.98 432.73-26.18 433.74-26.39 434.62-26.39L434.62-26.39 448.95-26.39ZM483.98-14.65L483.98 0 477.64 0 477.64-14.65Q477.64-15.89 477.21-16.88 476.78-17.87 476.05-18.58 475.32-19.29 474.33-19.67 473.34-20.04 472.19-20.04L472.19-20.04 461.08-20.04 461.08 0 454.74 0 454.74-23.24Q454.74-23.9 454.98-24.48 455.22-25.05 455.66-25.48 456.1-25.9 456.69-26.15 457.27-26.39 457.93-26.39L457.93-26.39 472.24-26.39Q473.44-26.39 474.77-26.12 476.1-25.85 477.4-25.26 478.71-24.66 479.89-23.74 481.08-22.83 481.99-21.52 482.91-20.21 483.45-18.51 483.98-16.8 483.98-14.65L483.98-14.65ZM497.61-37.55L497.61-31.81 491.26-31.81 491.26-37.55 497.61-37.55ZM497.61-26.39L497.61 0 491.26 0 491.26-26.39 497.61-26.39ZM534.54-14.65L534.54 0 528.19 0 528.19-14.65Q528.19-15.89 527.77-16.88 527.34-17.87 526.61-18.58 525.88-19.29 524.89-19.67 523.9-20.04 522.75-20.04L522.75-20.04 511.64-20.04 511.64 0 505.29 0 505.29-23.24Q505.29-23.9 505.54-24.48 505.78-25.05 506.22-25.48 506.66-25.9 507.25-26.15 507.83-26.39 508.49-26.39L508.49-26.39 522.8-26.39Q524-26.39 525.33-26.12 526.66-25.85 527.96-25.26 529.27-24.66 530.45-23.74 531.64-22.83 532.55-21.52 533.47-20.21 534.01-18.51 534.54-16.8 534.54-14.65L534.54-14.65ZM570.43-17.5L570.43 2.54Q570.43 4.17 570.01 5.48 569.6 6.79 568.92 7.78 568.23 8.76 567.33 9.46 566.43 10.16 565.44 10.6 564.45 11.04 563.43 11.24 562.42 11.45 561.52 11.45L561.52 11.45 550.07 11.45 550.07 5.1 561.52 5.1Q562.81 5.1 563.45 4.44 564.08 3.78 564.08 2.54L564.08 2.54 564.08-17.5Q564.08-18.75 563.45-19.4 562.81-20.04 561.52-20.04L561.52-20.04 550.07-20.04Q548.9-20.04 548.21-19.32 547.53-18.6 547.53-17.5L547.53-17.5 547.53-8.91Q547.53-7.67 548.19-7.01 548.85-6.35 550.12-6.35L550.12-6.35 561.52-6.35 561.52 0 550.07 0Q549.16 0 548.16-0.21 547.16-0.42 546.17-0.85 545.18-1.29 544.28-1.99 543.38-2.69 542.69-3.67 542.01-4.66 541.6-5.97 541.18-7.28 541.18-8.91L541.18-8.91 541.18-17.5Q541.18-18.41 541.39-19.41 541.6-20.41 542.04-21.4 542.48-22.39 543.17-23.29 543.87-24.19 544.86-24.88 545.84-25.56 547.14-25.98 548.43-26.39 550.07-26.39L550.07-26.39 561.52-26.39Q562.42-26.39 563.43-26.18 564.45-25.98 565.44-25.54 566.43-25.1 567.33-24.4 568.23-23.71 568.92-22.72 569.6-21.73 570.01-20.43 570.43-19.14 570.43-17.5L570.43-17.5Z" opacity="1" transform="matrix(1,0,0,1,0,0)" fill="#1b3403" class="undefined-text-1" data-fill-palette-color="secondary" id="text-1"></path></svg></g></svg></g></svg></g></svg></g><g transform="matrix(1,0,0,1,82.67098785011777,0)"><svg viewBox="0 0 230.17802429976445 230.17802429976445" height="230.17802429976445" width="230.17802429976445"><g><svg></svg></g><g id="icon-0"><svg viewBox="0 0 230.17802429976445 230.17802429976445" height="230.17802429976445" width="230.17802429976445"><g><path d="M0 115.089c0-63.562 51.527-115.089 115.089-115.089 63.562 0 115.089 51.527 115.089 115.089 0 63.562-51.527 115.089-115.089 115.089-63.562 0-115.089-51.527-115.089-115.089zM115.089 225.194c60.809 0 110.105-49.296 110.105-110.105 0-60.809-49.296-110.105-110.105-110.105-60.809 0-110.105 49.296-110.105 110.105 0 60.809 49.296 110.105 110.105 110.105z" data-fill-palette-color="accent" fill="#24a8df" stroke="transparent"></path><ellipse rx="113.9381220283834" ry="113.9381220283834" cx="115.08901214988222" cy="115.08901214988222" fill="#24a8df" stroke="transparent" stroke-width="0" fill-opacity="1" data-fill-palette-color="accent"></ellipse></g><g transform="matrix(1,0,0,1,68.94618687185393,45.87477423283977)"><svg viewBox="0 0 92.2856505560566 138.4284758340849" height="138.4284758340849" width="92.2856505560566"><g><svg xmlns:dc="http://purl.org/dc/elements/1.1/" xmlns:cc="http://creativecommons.org/ns#" xmlns:rdf="http://www.w3.org/1999/02/22-rdf-syntax-ns#" xmlns:svg="http://www.w3.org/2000/svg" xmlns="http://www.w3.org/2000/svg" xmlns:sodipodi="http://sodipodi.sourceforge.net/DTD/sodipodi-0.dtd" xmlns:inkscape="http://www.inkscape.org/namespaces/inkscape" version="1.1" x="0" y="0" viewBox="14 5 36 54" style="enable-background:new 0 0 64 64;" xml:space="preserve" height="138.4284758340849" width="92.2856505560566" class="icon-a-0" data-fill-palette-color="quaternary" id="a-0"><path d="M26.5 5C24.57 5 23 6.57 23 8.5L23 12.5C23 13.151 23.419 13.701 24 13.908L24 15 23.5 15C22.673 15 22 15.673 22 16.5L22 19.5C22 20.327 22.673 21 23.5 21L24 21 24 22.5C24 25.758 26.09 28.529 28.998 29.563L28.986 32 24.5 32C18.71 32 14 36.71 14 42.5L14 58.5C14 58.776 14.224 59 14.5 59L49.5 59C49.776 59 50 58.776 50 58.5L50 42.5C50 36.71 45.29 32 39.5 32L35.986 32 35.998 29.563C38.908 28.53 41 25.759 41 22.5L41 21 41.479 21C42.306 21 42.979 20.327 42.979 19.5L42.979 16.5C42.979 15.673 42.306 15 41.479 15L41 15 41 13.908C41.581 13.701 42 13.151 42 12.5L42 9.5C42 8.121 40.878 7 39.5 7L28.5 7C27.673 7 27 6.327 27 5.5 27 5.224 26.776 5 26.5 5zM26.059 6.039C26.306 7.159 27.307 8 28.5 8L39.5 8C40.327 8 41 8.673 41 9.5L41 12.5C41 12.775 40.776 13 40.5 13L24.5 13C24.224 13 24 12.775 24 12.5L24 8.5C24 7.272 24.89 6.248 26.059 6.039zM25 14L40 14 40 15 37.313 15C37.276 15 37.243 15.013 37.209 15.021 37.139 15.014 37.071 15 37 15L35 15C34.195 15 33.505 15.481 33.188 16.168 32.977 16.061 32.751 15.986 32.506 15.986 32.258 15.986 32.03 16.067 31.818 16.178 31.502 15.485 30.808 15 30 15L28 15C27.995 15 27.991 15.002 27.986 15.002 27.983 15.002 27.981 15 27.979 15L25 15 25 14zM23.5 16L24 16 24 20 23.5 20C23.224 20 23 19.775 23 19.5L23 16.5C23 16.225 23.224 16 23.5 16zM25 16L26.277 16C26.105 16.295 26 16.634 26 17 26 18.103 26.897 19 28 19L30 19C30.923 19 31.694 18.369 31.924 17.518 31.936 17.492 31.955 17.47 31.963 17.441 32.1 16.93 32.801 16.79 33.051 17.443 33.052 17.446 33.056 17.446 33.057 17.449 33.262 18.335 34.053 19 35 19L37 19C38.103 19 39 18.103 39 17 39 16.634 38.895 16.295 38.723 16L40 16 40 22.5C40 26.084 37.084 29 33.5 29L31.5 29C27.916 29 25 26.084 25 22.5L25 16zM28 16L30 16C30.551 16 31 16.448 31 17 31 17.552 30.551 18 30 18L28 18C27.449 18 27 17.552 27 17 27 16.448 27.449 16 28 16zM35 16L37 16C37.551 16 38 16.448 38 17 38 17.552 37.551 18 37 18L35 18C34.449 18 34 17.552 34 17 34 16.448 34.449 16 35 16zM41 16L41.479 16C41.755 16 41.979 16.225 41.979 16.5L41.979 19.5C41.979 19.775 41.755 20 41.479 20L41 20 41 16zM28.998 16.498A0.5 0.5 0 0 0 28.498 16.998 0.5 0.5 0 0 0 28.998 17.498 0.5 0.5 0 0 0 29.498 16.998 0.5 0.5 0 0 0 28.998 16.498zM35.998 16.498A0.5 0.5 0 0 0 35.498 16.998 0.5 0.5 0 0 0 35.998 17.498 0.5 0.5 0 0 0 36.498 16.998 0.5 0.5 0 0 0 35.998 16.498zM31.5 20C31.224 20 31 20.224 31 20.5 31 21.327 31.673 22 32.5 22 33.327 22 34 21.327 34 20.5 34 20.224 33.776 20 33.5 20 33.224 20 33 20.224 33 20.5 33 20.775 32.776 21 32.5 21 32.224 21 32 20.775 32 20.5 32 20.224 31.776 20 31.5 20zM35.545 23.002C35.417 22.99 35.286 23.027 35.18 23.115 33.815 24.252 31.185 24.252 29.82 23.115 29.607 22.939 29.291 22.971 29.115 23.182 28.938 23.394 28.968 23.708 29.18 23.885 30.052 24.61 31.231 25.01 32.5 25.01 33.769 25.01 34.948 24.609 35.82 23.885 36.032 23.708 36.062 23.394 35.885 23.182 35.797 23.075 35.672 23.014 35.545 23.002zM31.992 26C31.716 26 31.492 26.224 31.492 26.5 31.492 26.776 31.715 27 31.992 27L32.992 27C33.268 27 33.492 26.776 33.492 26.5 33.492 26.224 33.268 26 32.992 26L31.992 26zM29.996 29.848C30.483 29.948 30.985 30 31.5 30L33.5 30C34.013 30 34.512 29.949 34.996 29.85L34.984 32.447C34.984 33.826 33.862 34.947 32.484 34.947 31.13 34.947 30.032 33.864 29.992 32.521L29.992 32.5C29.992 32.492 29.987 32.485 29.986 32.477 29.986 32.468 29.984 32.458 29.984 32.449L29.996 29.848zM24.5 33L25.684 33 22.93 38.396C22.811 38.629 22.89 38.916 23.113 39.051L25.805 40.689 24.076 43.238C24.001 43.348 23.975 43.484 24.002 43.615L26.85 58 19.99 58C19.991 57.984 20 57.971 20 57.955L20 44.5C20 44.224 19.776 44 19.5 44 19.224 44 19 44.224 19 44.5L19 57.955C19 57.971 19.009 57.984 19.01 58L15 58 15 42.5C15 37.262 19.262 33 24.5 33zM26.807 33L28.992 33 29 57.955C29 57.971 29.009 57.984 29.01 58L27.869 58 25.023 43.627 26.928 40.816C27.004 40.703 27.031 40.563 27.002 40.43 26.973 40.296 26.89 40.18 26.773 40.109L24.029 38.439 26.807 33zM36.01 33L38.197 33 40.973 38.439 38.229 40.109C38.112 40.18 38.03 40.297 38 40.43 37.971 40.564 37.997 40.702 38.074 40.816L39.979 43.627 37.135 58 35.994 58C35.995 57.984 36.004 57.971 36.004 57.955L36.01 33zM39.318 33L39.5 33C44.738 33 49 37.262 49 42.5L49 58 44.99 58C44.991 57.984 45 57.971 45 57.955L45 44.5C45 44.224 44.776 44 44.5 44 44.224 44 44 44.224 44 44.5L44 57.955C44 57.971 44.009 57.984 44.01 58L38.154 58 41.002 43.615C41.028 43.484 41.001 43.348 40.926 43.238L39.197 40.689 41.889 39.051C42.112 38.915 42.191 38.629 42.072 38.396L39.318 33zM35.01 34.861L35.01 36.41C33.52 37.414 31.49 37.421 29.994 36.424L29.994 34.898C30.629 35.544 31.511 35.947 32.486 35.947 33.479 35.947 34.372 35.527 35.01 34.861zM35.01 37.586L35.004 57.953C35.004 57.969 35.011 57.982 35.012 57.998L29.99 57.998C29.991 57.983 30 57.971 30 57.955L29.994 37.594C30.762 37.988 31.609 38.197 32.492 38.197 33.381 38.197 34.237 37.986 35.01 37.586z" fill="#ffffff" stroke="none" data-fill-palette-color="quaternary"></path></svg></g></svg></g></svg></g></svg></g><g></g></svg></g><defs></defs></svg><rect width="272.54901408091524" height="247.2" fill="none" stroke="none" visibility="hidden"></rect></g></svg></g></svg>